<?xml version="1.0" encoding="utf-8" standalone="no"?>
<!DOCTYPE svg PUBLIC "-//W3C//DTD SVG 1.1//EN"
  "http://www.w3.org/Graphics/SVG/1.1/DTD/svg11.dtd">
<!-- Created with matplotlib (https://matplotlib.org/) -->
<svg height="864pt" version="1.1" viewBox="0 0 576 864" width="576pt" xmlns="http://www.w3.org/2000/svg" xmlns:xlink="http://www.w3.org/1999/xlink">
 <defs>
  <style type="text/css">
*{stroke-linecap:butt;stroke-linejoin:round;}
  </style>
 </defs>
 <g id="figure_1">
  <g id="patch_1">
   <path d="M 0 864 
L 576 864 
L 576 0 
L 0 0 
z
" style="fill:#ffffff;"/>
  </g>
  <g id="axes_1">
   <g id="patch_2">
    <path d="M 72 406.08 
L 518.4 406.08 
L 518.4 103.68 
L 72 103.68 
z
" style="fill:#ffffff;"/>
   </g>
   <g id="matplotlib.axis_1">
    <g id="xtick_1">
     <g id="line2d_1">
      <defs>
       <path d="M 0 0 
L 0 3.5 
" id="maa8a10b26d" style="stroke:#000000;stroke-width:0.8;"/>
      </defs>
      <g>
       <use style="stroke:#000000;stroke-width:0.8;" x="92.290909" xlink:href="#maa8a10b26d" y="406.08"/>
      </g>
     </g>
     <g id="text_1">
      <!-- 0 -->
      <defs>
       <path d="M 31.78125 66.40625 
Q 24.171875 66.40625 20.328125 58.90625 
Q 16.5 51.421875 16.5 36.375 
Q 16.5 21.390625 20.328125 13.890625 
Q 24.171875 6.390625 31.78125 6.390625 
Q 39.453125 6.390625 43.28125 13.890625 
Q 47.125 21.390625 47.125 36.375 
Q 47.125 51.421875 43.28125 58.90625 
Q 39.453125 66.40625 31.78125 66.40625 
z
M 31.78125 74.21875 
Q 44.046875 74.21875 50.515625 64.515625 
Q 56.984375 54.828125 56.984375 36.375 
Q 56.984375 17.96875 50.515625 8.265625 
Q 44.046875 -1.421875 31.78125 -1.421875 
Q 19.53125 -1.421875 13.0625 8.265625 
Q 6.59375 17.96875 6.59375 36.375 
Q 6.59375 54.828125 13.0625 64.515625 
Q 19.53125 74.21875 31.78125 74.21875 
z
" id="DejaVuSans-48"/>
      </defs>
      <g transform="translate(89.109659 420.678437)scale(0.1 -0.1)">
       <use xlink:href="#DejaVuSans-48"/>
      </g>
     </g>
    </g>
    <g id="xtick_2">
     <g id="line2d_2">
      <g>
       <use style="stroke:#000000;stroke-width:0.8;" x="151.00303" xlink:href="#maa8a10b26d" y="406.08"/>
      </g>
     </g>
     <g id="text_2">
      <!-- 250 -->
      <defs>
       <path d="M 19.1875 8.296875 
L 53.609375 8.296875 
L 53.609375 0 
L 7.328125 0 
L 7.328125 8.296875 
Q 12.9375 14.109375 22.625 23.890625 
Q 32.328125 33.6875 34.8125 36.53125 
Q 39.546875 41.84375 41.421875 45.53125 
Q 43.3125 49.21875 43.3125 52.78125 
Q 43.3125 58.59375 39.234375 62.25 
Q 35.15625 65.921875 28.609375 65.921875 
Q 23.96875 65.921875 18.8125 64.3125 
Q 13.671875 62.703125 7.8125 59.421875 
L 7.8125 69.390625 
Q 13.765625 71.78125 18.9375 73 
Q 24.125 74.21875 28.421875 74.21875 
Q 39.75 74.21875 46.484375 68.546875 
Q 53.21875 62.890625 53.21875 53.421875 
Q 53.21875 48.921875 51.53125 44.890625 
Q 49.859375 40.875 45.40625 35.40625 
Q 44.1875 33.984375 37.640625 27.21875 
Q 31.109375 20.453125 19.1875 8.296875 
z
" id="DejaVuSans-50"/>
       <path d="M 10.796875 72.90625 
L 49.515625 72.90625 
L 49.515625 64.59375 
L 19.828125 64.59375 
L 19.828125 46.734375 
Q 21.96875 47.46875 24.109375 47.828125 
Q 26.265625 48.1875 28.421875 48.1875 
Q 40.625 48.1875 47.75 41.5 
Q 54.890625 34.8125 54.890625 23.390625 
Q 54.890625 11.625 47.5625 5.09375 
Q 40.234375 -1.421875 26.90625 -1.421875 
Q 22.3125 -1.421875 17.546875 -0.640625 
Q 12.796875 0.140625 7.71875 1.703125 
L 7.71875 11.625 
Q 12.109375 9.234375 16.796875 8.0625 
Q 21.484375 6.890625 26.703125 6.890625 
Q 35.15625 6.890625 40.078125 11.328125 
Q 45.015625 15.765625 45.015625 23.390625 
Q 45.015625 31 40.078125 35.4375 
Q 35.15625 39.890625 26.703125 39.890625 
Q 22.75 39.890625 18.8125 39.015625 
Q 14.890625 38.140625 10.796875 36.28125 
z
" id="DejaVuSans-53"/>
      </defs>
      <g transform="translate(141.45928 420.678437)scale(0.1 -0.1)">
       <use xlink:href="#DejaVuSans-50"/>
       <use x="63.623047" xlink:href="#DejaVuSans-53"/>
       <use x="127.246094" xlink:href="#DejaVuSans-48"/>
      </g>
     </g>
    </g>
    <g id="xtick_3">
     <g id="line2d_3">
      <g>
       <use style="stroke:#000000;stroke-width:0.8;" x="209.715152" xlink:href="#maa8a10b26d" y="406.08"/>
      </g>
     </g>
     <g id="text_3">
      <!-- 500 -->
      <g transform="translate(200.171402 420.678437)scale(0.1 -0.1)">
       <use xlink:href="#DejaVuSans-53"/>
       <use x="63.623047" xlink:href="#DejaVuSans-48"/>
       <use x="127.246094" xlink:href="#DejaVuSans-48"/>
      </g>
     </g>
    </g>
    <g id="xtick_4">
     <g id="line2d_4">
      <g>
       <use style="stroke:#000000;stroke-width:0.8;" x="268.427273" xlink:href="#maa8a10b26d" y="406.08"/>
      </g>
     </g>
     <g id="text_4">
      <!-- 750 -->
      <defs>
       <path d="M 8.203125 72.90625 
L 55.078125 72.90625 
L 55.078125 68.703125 
L 28.609375 0 
L 18.3125 0 
L 43.21875 64.59375 
L 8.203125 64.59375 
z
" id="DejaVuSans-55"/>
      </defs>
      <g transform="translate(258.883523 420.678437)scale(0.1 -0.1)">
       <use xlink:href="#DejaVuSans-55"/>
       <use x="63.623047" xlink:href="#DejaVuSans-53"/>
       <use x="127.246094" xlink:href="#DejaVuSans-48"/>
      </g>
     </g>
    </g>
    <g id="xtick_5">
     <g id="line2d_5">
      <g>
       <use style="stroke:#000000;stroke-width:0.8;" x="327.139394" xlink:href="#maa8a10b26d" y="406.08"/>
      </g>
     </g>
     <g id="text_5">
      <!-- 1000 -->
      <defs>
       <path d="M 12.40625 8.296875 
L 28.515625 8.296875 
L 28.515625 63.921875 
L 10.984375 60.40625 
L 10.984375 69.390625 
L 28.421875 72.90625 
L 38.28125 72.90625 
L 38.28125 8.296875 
L 54.390625 8.296875 
L 54.390625 0 
L 12.40625 0 
z
" id="DejaVuSans-49"/>
      </defs>
      <g transform="translate(314.414394 420.678437)scale(0.1 -0.1)">
       <use xlink:href="#DejaVuSans-49"/>
       <use x="63.623047" xlink:href="#DejaVuSans-48"/>
       <use x="127.246094" xlink:href="#DejaVuSans-48"/>
       <use x="190.869141" xlink:href="#DejaVuSans-48"/>
      </g>
     </g>
    </g>
    <g id="xtick_6">
     <g id="line2d_6">
      <g>
       <use style="stroke:#000000;stroke-width:0.8;" x="385.851515" xlink:href="#maa8a10b26d" y="406.08"/>
      </g>
     </g>
     <g id="text_6">
      <!-- 1250 -->
      <g transform="translate(373.126515 420.678437)scale(0.1 -0.1)">
       <use xlink:href="#DejaVuSans-49"/>
       <use x="63.623047" xlink:href="#DejaVuSans-50"/>
       <use x="127.246094" xlink:href="#DejaVuSans-53"/>
       <use x="190.869141" xlink:href="#DejaVuSans-48"/>
      </g>
     </g>
    </g>
    <g id="xtick_7">
     <g id="line2d_7">
      <g>
       <use style="stroke:#000000;stroke-width:0.8;" x="444.563636" xlink:href="#maa8a10b26d" y="406.08"/>
      </g>
     </g>
     <g id="text_7">
      <!-- 1500 -->
      <g transform="translate(431.838636 420.678437)scale(0.1 -0.1)">
       <use xlink:href="#DejaVuSans-49"/>
       <use x="63.623047" xlink:href="#DejaVuSans-53"/>
       <use x="127.246094" xlink:href="#DejaVuSans-48"/>
       <use x="190.869141" xlink:href="#DejaVuSans-48"/>
      </g>
     </g>
    </g>
    <g id="xtick_8">
     <g id="line2d_8">
      <g>
       <use style="stroke:#000000;stroke-width:0.8;" x="503.275758" xlink:href="#maa8a10b26d" y="406.08"/>
      </g>
     </g>
     <g id="text_8">
      <!-- 1750 -->
      <g transform="translate(490.550758 420.678437)scale(0.1 -0.1)">
       <use xlink:href="#DejaVuSans-49"/>
       <use x="63.623047" xlink:href="#DejaVuSans-55"/>
       <use x="127.246094" xlink:href="#DejaVuSans-53"/>
       <use x="190.869141" xlink:href="#DejaVuSans-48"/>
      </g>
     </g>
    </g>
    <g id="text_9">
     <!-- iteration -->
     <defs>
      <path d="M 9.421875 54.6875 
L 18.40625 54.6875 
L 18.40625 0 
L 9.421875 0 
z
M 9.421875 75.984375 
L 18.40625 75.984375 
L 18.40625 64.59375 
L 9.421875 64.59375 
z
" id="DejaVuSans-105"/>
      <path d="M 18.3125 70.21875 
L 18.3125 54.6875 
L 36.8125 54.6875 
L 36.8125 47.703125 
L 18.3125 47.703125 
L 18.3125 18.015625 
Q 18.3125 11.328125 20.140625 9.421875 
Q 21.96875 7.515625 27.59375 7.515625 
L 36.8125 7.515625 
L 36.8125 0 
L 27.59375 0 
Q 17.1875 0 13.234375 3.875 
Q 9.28125 7.765625 9.28125 18.015625 
L 9.28125 47.703125 
L 2.6875 47.703125 
L 2.6875 54.6875 
L 9.28125 54.6875 
L 9.28125 70.21875 
z
" id="DejaVuSans-116"/>
      <path d="M 56.203125 29.59375 
L 56.203125 25.203125 
L 14.890625 25.203125 
Q 15.484375 15.921875 20.484375 11.0625 
Q 25.484375 6.203125 34.421875 6.203125 
Q 39.59375 6.203125 44.453125 7.46875 
Q 49.3125 8.734375 54.109375 11.28125 
L 54.109375 2.78125 
Q 49.265625 0.734375 44.1875 -0.34375 
Q 39.109375 -1.421875 33.890625 -1.421875 
Q 20.796875 -1.421875 13.15625 6.1875 
Q 5.515625 13.8125 5.515625 26.8125 
Q 5.515625 40.234375 12.765625 48.109375 
Q 20.015625 56 32.328125 56 
Q 43.359375 56 49.78125 48.890625 
Q 56.203125 41.796875 56.203125 29.59375 
z
M 47.21875 32.234375 
Q 47.125 39.59375 43.09375 43.984375 
Q 39.0625 48.390625 32.421875 48.390625 
Q 24.90625 48.390625 20.390625 44.140625 
Q 15.875 39.890625 15.1875 32.171875 
z
" id="DejaVuSans-101"/>
      <path d="M 41.109375 46.296875 
Q 39.59375 47.171875 37.8125 47.578125 
Q 36.03125 48 33.890625 48 
Q 26.265625 48 22.1875 43.046875 
Q 18.109375 38.09375 18.109375 28.8125 
L 18.109375 0 
L 9.078125 0 
L 9.078125 54.6875 
L 18.109375 54.6875 
L 18.109375 46.1875 
Q 20.953125 51.171875 25.484375 53.578125 
Q 30.03125 56 36.53125 56 
Q 37.453125 56 38.578125 55.875 
Q 39.703125 55.765625 41.0625 55.515625 
z
" id="DejaVuSans-114"/>
      <path d="M 34.28125 27.484375 
Q 23.390625 27.484375 19.1875 25 
Q 14.984375 22.515625 14.984375 16.5 
Q 14.984375 11.71875 18.140625 8.90625 
Q 21.296875 6.109375 26.703125 6.109375 
Q 34.1875 6.109375 38.703125 11.40625 
Q 43.21875 16.703125 43.21875 25.484375 
L 43.21875 27.484375 
z
M 52.203125 31.203125 
L 52.203125 0 
L 43.21875 0 
L 43.21875 8.296875 
Q 40.140625 3.328125 35.546875 0.953125 
Q 30.953125 -1.421875 24.3125 -1.421875 
Q 15.921875 -1.421875 10.953125 3.296875 
Q 6 8.015625 6 15.921875 
Q 6 25.140625 12.171875 29.828125 
Q 18.359375 34.515625 30.609375 34.515625 
L 43.21875 34.515625 
L 43.21875 35.40625 
Q 43.21875 41.609375 39.140625 45 
Q 35.0625 48.390625 27.6875 48.390625 
Q 23 48.390625 18.546875 47.265625 
Q 14.109375 46.140625 10.015625 43.890625 
L 10.015625 52.203125 
Q 14.9375 54.109375 19.578125 55.046875 
Q 24.21875 56 28.609375 56 
Q 40.484375 56 46.34375 49.84375 
Q 52.203125 43.703125 52.203125 31.203125 
z
" id="DejaVuSans-97"/>
      <path d="M 30.609375 48.390625 
Q 23.390625 48.390625 19.1875 42.75 
Q 14.984375 37.109375 14.984375 27.296875 
Q 14.984375 17.484375 19.15625 11.84375 
Q 23.34375 6.203125 30.609375 6.203125 
Q 37.796875 6.203125 41.984375 11.859375 
Q 46.1875 17.53125 46.1875 27.296875 
Q 46.1875 37.015625 41.984375 42.703125 
Q 37.796875 48.390625 30.609375 48.390625 
z
M 30.609375 56 
Q 42.328125 56 49.015625 48.375 
Q 55.71875 40.765625 55.71875 27.296875 
Q 55.71875 13.875 49.015625 6.21875 
Q 42.328125 -1.421875 30.609375 -1.421875 
Q 18.84375 -1.421875 12.171875 6.21875 
Q 5.515625 13.875 5.515625 27.296875 
Q 5.515625 40.765625 12.171875 48.375 
Q 18.84375 56 30.609375 56 
z
" id="DejaVuSans-111"/>
      <path d="M 54.890625 33.015625 
L 54.890625 0 
L 45.90625 0 
L 45.90625 32.71875 
Q 45.90625 40.484375 42.875 44.328125 
Q 39.84375 48.1875 33.796875 48.1875 
Q 26.515625 48.1875 22.3125 43.546875 
Q 18.109375 38.921875 18.109375 30.90625 
L 18.109375 0 
L 9.078125 0 
L 9.078125 54.6875 
L 18.109375 54.6875 
L 18.109375 46.1875 
Q 21.34375 51.125 25.703125 53.5625 
Q 30.078125 56 35.796875 56 
Q 45.21875 56 50.046875 50.171875 
Q 54.890625 44.34375 54.890625 33.015625 
z
" id="DejaVuSans-110"/>
     </defs>
     <g transform="translate(274.077344 434.356562)scale(0.1 -0.1)">
      <use xlink:href="#DejaVuSans-105"/>
      <use x="27.783203" xlink:href="#DejaVuSans-116"/>
      <use x="66.992188" xlink:href="#DejaVuSans-101"/>
      <use x="128.515625" xlink:href="#DejaVuSans-114"/>
      <use x="169.628906" xlink:href="#DejaVuSans-97"/>
      <use x="230.908203" xlink:href="#DejaVuSans-116"/>
      <use x="270.117188" xlink:href="#DejaVuSans-105"/>
      <use x="297.900391" xlink:href="#DejaVuSans-111"/>
      <use x="359.082031" xlink:href="#DejaVuSans-110"/>
     </g>
    </g>
   </g>
   <g id="matplotlib.axis_2">
    <g id="ytick_1">
     <g id="line2d_9">
      <defs>
       <path d="M 0 0 
L -3.5 0 
" id="m5a4d99edda" style="stroke:#000000;stroke-width:0.8;"/>
      </defs>
      <g>
       <use style="stroke:#000000;stroke-width:0.8;" x="72" xlink:href="#m5a4d99edda" y="392.335196"/>
      </g>
     </g>
     <g id="text_10">
      <!-- 0 -->
      <g transform="translate(58.6375 396.134415)scale(0.1 -0.1)">
       <use xlink:href="#DejaVuSans-48"/>
      </g>
     </g>
    </g>
    <g id="ytick_2">
     <g id="line2d_10">
      <g>
       <use style="stroke:#000000;stroke-width:0.8;" x="72" xlink:href="#m5a4d99edda" y="354.153288"/>
      </g>
     </g>
     <g id="text_11">
      <!-- 20 -->
      <g transform="translate(52.275 357.952506)scale(0.1 -0.1)">
       <use xlink:href="#DejaVuSans-50"/>
       <use x="63.623047" xlink:href="#DejaVuSans-48"/>
      </g>
     </g>
    </g>
    <g id="ytick_3">
     <g id="line2d_11">
      <g>
       <use style="stroke:#000000;stroke-width:0.8;" x="72" xlink:href="#m5a4d99edda" y="315.971379"/>
      </g>
     </g>
     <g id="text_12">
      <!-- 40 -->
      <defs>
       <path d="M 37.796875 64.3125 
L 12.890625 25.390625 
L 37.796875 25.390625 
z
M 35.203125 72.90625 
L 47.609375 72.90625 
L 47.609375 25.390625 
L 58.015625 25.390625 
L 58.015625 17.1875 
L 47.609375 17.1875 
L 47.609375 0 
L 37.796875 0 
L 37.796875 17.1875 
L 4.890625 17.1875 
L 4.890625 26.703125 
z
" id="DejaVuSans-52"/>
      </defs>
      <g transform="translate(52.275 319.770598)scale(0.1 -0.1)">
       <use xlink:href="#DejaVuSans-52"/>
       <use x="63.623047" xlink:href="#DejaVuSans-48"/>
      </g>
     </g>
    </g>
    <g id="ytick_4">
     <g id="line2d_12">
      <g>
       <use style="stroke:#000000;stroke-width:0.8;" x="72" xlink:href="#m5a4d99edda" y="277.789471"/>
      </g>
     </g>
     <g id="text_13">
      <!-- 60 -->
      <defs>
       <path d="M 33.015625 40.375 
Q 26.375 40.375 22.484375 35.828125 
Q 18.609375 31.296875 18.609375 23.390625 
Q 18.609375 15.53125 22.484375 10.953125 
Q 26.375 6.390625 33.015625 6.390625 
Q 39.65625 6.390625 43.53125 10.953125 
Q 47.40625 15.53125 47.40625 23.390625 
Q 47.40625 31.296875 43.53125 35.828125 
Q 39.65625 40.375 33.015625 40.375 
z
M 52.59375 71.296875 
L 52.59375 62.3125 
Q 48.875 64.0625 45.09375 64.984375 
Q 41.3125 65.921875 37.59375 65.921875 
Q 27.828125 65.921875 22.671875 59.328125 
Q 17.53125 52.734375 16.796875 39.40625 
Q 19.671875 43.65625 24.015625 45.921875 
Q 28.375 48.1875 33.59375 48.1875 
Q 44.578125 48.1875 50.953125 41.515625 
Q 57.328125 34.859375 57.328125 23.390625 
Q 57.328125 12.15625 50.6875 5.359375 
Q 44.046875 -1.421875 33.015625 -1.421875 
Q 20.359375 -1.421875 13.671875 8.265625 
Q 6.984375 17.96875 6.984375 36.375 
Q 6.984375 53.65625 15.1875 63.9375 
Q 23.390625 74.21875 37.203125 74.21875 
Q 40.921875 74.21875 44.703125 73.484375 
Q 48.484375 72.75 52.59375 71.296875 
z
" id="DejaVuSans-54"/>
      </defs>
      <g transform="translate(52.275 281.588689)scale(0.1 -0.1)">
       <use xlink:href="#DejaVuSans-54"/>
       <use x="63.623047" xlink:href="#DejaVuSans-48"/>
      </g>
     </g>
    </g>
    <g id="ytick_5">
     <g id="line2d_13">
      <g>
       <use style="stroke:#000000;stroke-width:0.8;" x="72" xlink:href="#m5a4d99edda" y="239.607562"/>
      </g>
     </g>
     <g id="text_14">
      <!-- 80 -->
      <defs>
       <path d="M 31.78125 34.625 
Q 24.75 34.625 20.71875 30.859375 
Q 16.703125 27.09375 16.703125 20.515625 
Q 16.703125 13.921875 20.71875 10.15625 
Q 24.75 6.390625 31.78125 6.390625 
Q 38.8125 6.390625 42.859375 10.171875 
Q 46.921875 13.96875 46.921875 20.515625 
Q 46.921875 27.09375 42.890625 30.859375 
Q 38.875 34.625 31.78125 34.625 
z
M 21.921875 38.8125 
Q 15.578125 40.375 12.03125 44.71875 
Q 8.5 49.078125 8.5 55.328125 
Q 8.5 64.0625 14.71875 69.140625 
Q 20.953125 74.21875 31.78125 74.21875 
Q 42.671875 74.21875 48.875 69.140625 
Q 55.078125 64.0625 55.078125 55.328125 
Q 55.078125 49.078125 51.53125 44.71875 
Q 48 40.375 41.703125 38.8125 
Q 48.828125 37.15625 52.796875 32.3125 
Q 56.78125 27.484375 56.78125 20.515625 
Q 56.78125 9.90625 50.3125 4.234375 
Q 43.84375 -1.421875 31.78125 -1.421875 
Q 19.734375 -1.421875 13.25 4.234375 
Q 6.78125 9.90625 6.78125 20.515625 
Q 6.78125 27.484375 10.78125 32.3125 
Q 14.796875 37.15625 21.921875 38.8125 
z
M 18.3125 54.390625 
Q 18.3125 48.734375 21.84375 45.5625 
Q 25.390625 42.390625 31.78125 42.390625 
Q 38.140625 42.390625 41.71875 45.5625 
Q 45.3125 48.734375 45.3125 54.390625 
Q 45.3125 60.0625 41.71875 63.234375 
Q 38.140625 66.40625 31.78125 66.40625 
Q 25.390625 66.40625 21.84375 63.234375 
Q 18.3125 60.0625 18.3125 54.390625 
z
" id="DejaVuSans-56"/>
      </defs>
      <g transform="translate(52.275 243.406781)scale(0.1 -0.1)">
       <use xlink:href="#DejaVuSans-56"/>
       <use x="63.623047" xlink:href="#DejaVuSans-48"/>
      </g>
     </g>
    </g>
    <g id="ytick_6">
     <g id="line2d_14">
      <g>
       <use style="stroke:#000000;stroke-width:0.8;" x="72" xlink:href="#m5a4d99edda" y="201.425653"/>
      </g>
     </g>
     <g id="text_15">
      <!-- 100 -->
      <g transform="translate(45.9125 205.224872)scale(0.1 -0.1)">
       <use xlink:href="#DejaVuSans-49"/>
       <use x="63.623047" xlink:href="#DejaVuSans-48"/>
       <use x="127.246094" xlink:href="#DejaVuSans-48"/>
      </g>
     </g>
    </g>
    <g id="ytick_7">
     <g id="line2d_15">
      <g>
       <use style="stroke:#000000;stroke-width:0.8;" x="72" xlink:href="#m5a4d99edda" y="163.243745"/>
      </g>
     </g>
     <g id="text_16">
      <!-- 120 -->
      <g transform="translate(45.9125 167.042964)scale(0.1 -0.1)">
       <use xlink:href="#DejaVuSans-49"/>
       <use x="63.623047" xlink:href="#DejaVuSans-50"/>
       <use x="127.246094" xlink:href="#DejaVuSans-48"/>
      </g>
     </g>
    </g>
    <g id="ytick_8">
     <g id="line2d_16">
      <g>
       <use style="stroke:#000000;stroke-width:0.8;" x="72" xlink:href="#m5a4d99edda" y="125.061836"/>
      </g>
     </g>
     <g id="text_17">
      <!-- 140 -->
      <g transform="translate(45.9125 128.861055)scale(0.1 -0.1)">
       <use xlink:href="#DejaVuSans-49"/>
       <use x="63.623047" xlink:href="#DejaVuSans-52"/>
       <use x="127.246094" xlink:href="#DejaVuSans-48"/>
      </g>
     </g>
    </g>
    <g id="text_18">
     <!-- $f(\widehat{x}) - f(x_*)$ -->
     <defs>
      <path d="M 47.796875 75.984375 
L 46.390625 68.5 
L 37.796875 68.5 
Q 32.90625 68.5 30.6875 66.578125 
Q 28.46875 64.65625 27.390625 59.515625 
L 26.421875 54.6875 
L 41.21875 54.6875 
L 39.890625 47.703125 
L 25.09375 47.703125 
L 15.828125 0 
L 6.78125 0 
L 16.109375 47.703125 
L 7.515625 47.703125 
L 8.796875 54.6875 
L 17.390625 54.6875 
L 18.109375 58.5 
Q 19.96875 68.171875 24.625 72.078125 
Q 29.296875 75.984375 39.3125 75.984375 
z
" id="DejaVuSans-Oblique-102"/>
      <path d="M 31 75.875 
Q 24.46875 64.65625 21.28125 53.65625 
Q 18.109375 42.671875 18.109375 31.390625 
Q 18.109375 20.125 21.3125 9.0625 
Q 24.515625 -2 31 -13.1875 
L 23.1875 -13.1875 
Q 15.875 -1.703125 12.234375 9.375 
Q 8.59375 20.453125 8.59375 31.390625 
Q 8.59375 42.28125 12.203125 53.3125 
Q 15.828125 64.359375 23.1875 75.875 
z
" id="DejaVuSans-40"/>
      <path d="M -17.09375 56.40625 
L -27 56.40625 
L -66 70.90625 
L -105.09375 56.40625 
L -115 56.40625 
L -68.40625 77.703125 
L -63.59375 77.703125 
z
" id="STIXSizeTwoSym-Regular-770"/>
      <path d="M 60.015625 54.6875 
L 34.90625 27.875 
L 50.296875 0 
L 39.984375 0 
L 28.421875 21.6875 
L 8.296875 0 
L -2.59375 0 
L 24.3125 28.8125 
L 10.015625 54.6875 
L 20.3125 54.6875 
L 30.8125 34.90625 
L 49.125 54.6875 
z
" id="DejaVuSans-Oblique-120"/>
      <path d="M 8.015625 75.875 
L 15.828125 75.875 
Q 23.140625 64.359375 26.78125 53.3125 
Q 30.421875 42.28125 30.421875 31.390625 
Q 30.421875 20.453125 26.78125 9.375 
Q 23.140625 -1.703125 15.828125 -13.1875 
L 8.015625 -13.1875 
Q 14.5 -2 17.703125 9.0625 
Q 20.90625 20.125 20.90625 31.390625 
Q 20.90625 42.671875 17.703125 53.65625 
Q 14.5 64.65625 8.015625 75.875 
z
" id="DejaVuSans-41"/>
      <path d="M 10.59375 35.5 
L 73.1875 35.5 
L 73.1875 27.203125 
L 10.59375 27.203125 
z
" id="DejaVuSans-8722"/>
      <path d="M 47.015625 60.890625 
L 29.5 51.421875 
L 47.015625 41.890625 
L 44.1875 37.109375 
L 27.78125 47.015625 
L 27.78125 28.609375 
L 22.21875 28.609375 
L 22.21875 47.015625 
L 5.8125 37.109375 
L 2.984375 41.890625 
L 20.515625 51.421875 
L 2.984375 60.890625 
L 5.8125 65.71875 
L 22.21875 55.8125 
L 22.21875 74.21875 
L 27.78125 74.21875 
L 27.78125 55.8125 
L 44.1875 65.71875 
z
" id="DejaVuSans-42"/>
     </defs>
     <g transform="translate(39.832812 281.53)rotate(-90)scale(0.1 -0.1)">
      <use transform="translate(0 0.953125)" xlink:href="#DejaVuSans-Oblique-102"/>
      <use transform="translate(35.205078 0.953125)" xlink:href="#DejaVuSans-40"/>
      <use transform="translate(151.513672 34.046875)scale(0.604453)" xlink:href="#STIXSizeTwoSym-Regular-770"/>
      <use transform="translate(74.21875 0.953125)" xlink:href="#DejaVuSans-Oblique-120"/>
      <use transform="translate(133.398438 0.953125)" xlink:href="#DejaVuSans-41"/>
      <use transform="translate(191.894531 0.953125)" xlink:href="#DejaVuSans-8722"/>
      <use transform="translate(295.166016 0.953125)" xlink:href="#DejaVuSans-Oblique-102"/>
      <use transform="translate(330.371094 0.953125)" xlink:href="#DejaVuSans-40"/>
      <use transform="translate(369.384766 0.953125)" xlink:href="#DejaVuSans-Oblique-120"/>
      <use transform="translate(442.202148 -15.453125)scale(0.7)" xlink:href="#DejaVuSans-42"/>
      <use transform="translate(493.574219 0.953125)" xlink:href="#DejaVuSans-41"/>
     </g>
    </g>
   </g>
   <g id="line2d_17">
    <path clip-path="url(#p059ac5c755)" d="M 92.290909 324.400718 
L 92.525758 324.400718 
L 92.760606 381.220259 
L 92.995455 387.513767 
L 93.230303 389.255417 
L 93.7 390.516153 
L 94.169697 391.094909 
L 94.874242 391.434728 
L 96.048485 391.720103 
L 98.39697 391.957543 
L 102.389394 392.07227 
L 104.033333 392.129953 
L 106.381818 392.174418 
L 109.904545 392.213019 
L 114.366667 392.251942 
L 123.056061 392.283567 
L 136.207576 392.30598 
L 162.745455 392.322063 
L 252.457576 392.331901 
L 498.109091 392.334545 
L 498.109091 392.334545 
" style="fill:none;stroke:#008000;stroke-linecap:square;stroke-width:1.5;"/>
   </g>
   <g id="line2d_18">
    <path clip-path="url(#p059ac5c755)" d="M 92.290909 117.425455 
L 92.525758 254.880325 
L 92.760606 300.698616 
L 93.230303 337.353248 
L 93.7 353.062376 
L 94.169697 361.789669 
L 94.639394 367.343402 
L 95.343939 372.698786 
L 96.048485 376.164035 
L 96.75303 378.589709 
L 97.692424 380.880624 
L 98.631818 382.516991 
L 99.571212 383.744267 
L 100.745455 384.905203 
L 102.154545 385.941946 
L 103.798485 386.837001 
L 105.677273 387.595373 
L 108.025758 388.292406 
L 111.078788 388.941249 
L 114.836364 389.501075 
L 119.768182 390.005453 
L 126.578788 390.465062 
L 136.207576 390.87291 
L 150.298485 391.226689 
L 171.904545 391.526638 
L 207.601515 391.776437 
L 271.95 391.976306 
L 403.934848 392.128186 
L 498.109091 392.176197 
L 498.109091 392.176197 
" style="fill:none;stroke:#1f77b4;stroke-linecap:square;stroke-width:1.5;"/>
   </g>
   <g id="line2d_19">
    <path clip-path="url(#p059ac5c755)" d="M 92.290909 373.244242 
L 108.495455 373.244242 
L 108.730303 391.896056 
L 119.768182 392.071972 
L 144.427273 392.19661 
L 216.525758 392.277184 
L 498.109091 392.317482 
L 498.109091 392.317482 
" style="fill:none;stroke:#ff7f0e;stroke-linecap:square;stroke-width:1.5;"/>
   </g>
   <g id="patch_3">
    <path d="M 72 406.08 
L 72 103.68 
" style="fill:none;stroke:#000000;stroke-linecap:square;stroke-linejoin:miter;stroke-width:0.8;"/>
   </g>
   <g id="patch_4">
    <path d="M 518.4 406.08 
L 518.4 103.68 
" style="fill:none;stroke:#000000;stroke-linecap:square;stroke-linejoin:miter;stroke-width:0.8;"/>
   </g>
   <g id="patch_5">
    <path d="M 72 406.08 
L 518.4 406.08 
" style="fill:none;stroke:#000000;stroke-linecap:square;stroke-linejoin:miter;stroke-width:0.8;"/>
   </g>
   <g id="patch_6">
    <path d="M 72 103.68 
L 518.4 103.68 
" style="fill:none;stroke:#000000;stroke-linecap:square;stroke-linejoin:miter;stroke-width:0.8;"/>
   </g>
   <g id="legend_1">
    <g id="patch_7">
     <path d="M 413.275 155.714375 
L 511.4 155.714375 
Q 513.4 155.714375 513.4 153.714375 
L 513.4 110.68 
Q 513.4 108.68 511.4 108.68 
L 413.275 108.68 
Q 411.275 108.68 411.275 110.68 
L 411.275 153.714375 
Q 411.275 155.714375 413.275 155.714375 
z
" style="fill:#ffffff;opacity:0.8;stroke:#cccccc;stroke-linejoin:miter;"/>
    </g>
    <g id="line2d_20">
     <path d="M 415.275 116.778437 
L 435.275 116.778437 
" style="fill:none;stroke:#008000;stroke-linecap:square;stroke-width:1.5;"/>
    </g>
    <g id="line2d_21"/>
    <g id="text_19">
     <!-- discrepancy -->
     <defs>
      <path d="M 45.40625 46.390625 
L 45.40625 75.984375 
L 54.390625 75.984375 
L 54.390625 0 
L 45.40625 0 
L 45.40625 8.203125 
Q 42.578125 3.328125 38.25 0.953125 
Q 33.9375 -1.421875 27.875 -1.421875 
Q 17.96875 -1.421875 11.734375 6.484375 
Q 5.515625 14.40625 5.515625 27.296875 
Q 5.515625 40.1875 11.734375 48.09375 
Q 17.96875 56 27.875 56 
Q 33.9375 56 38.25 53.625 
Q 42.578125 51.265625 45.40625 46.390625 
z
M 14.796875 27.296875 
Q 14.796875 17.390625 18.875 11.75 
Q 22.953125 6.109375 30.078125 6.109375 
Q 37.203125 6.109375 41.296875 11.75 
Q 45.40625 17.390625 45.40625 27.296875 
Q 45.40625 37.203125 41.296875 42.84375 
Q 37.203125 48.484375 30.078125 48.484375 
Q 22.953125 48.484375 18.875 42.84375 
Q 14.796875 37.203125 14.796875 27.296875 
z
" id="DejaVuSans-100"/>
      <path d="M 44.28125 53.078125 
L 44.28125 44.578125 
Q 40.484375 46.53125 36.375 47.5 
Q 32.28125 48.484375 27.875 48.484375 
Q 21.1875 48.484375 17.84375 46.4375 
Q 14.5 44.390625 14.5 40.28125 
Q 14.5 37.15625 16.890625 35.375 
Q 19.28125 33.59375 26.515625 31.984375 
L 29.59375 31.296875 
Q 39.15625 29.25 43.1875 25.515625 
Q 47.21875 21.78125 47.21875 15.09375 
Q 47.21875 7.46875 41.1875 3.015625 
Q 35.15625 -1.421875 24.609375 -1.421875 
Q 20.21875 -1.421875 15.453125 -0.5625 
Q 10.6875 0.296875 5.421875 2 
L 5.421875 11.28125 
Q 10.40625 8.6875 15.234375 7.390625 
Q 20.0625 6.109375 24.8125 6.109375 
Q 31.15625 6.109375 34.5625 8.28125 
Q 37.984375 10.453125 37.984375 14.40625 
Q 37.984375 18.0625 35.515625 20.015625 
Q 33.0625 21.96875 24.703125 23.78125 
L 21.578125 24.515625 
Q 13.234375 26.265625 9.515625 29.90625 
Q 5.8125 33.546875 5.8125 39.890625 
Q 5.8125 47.609375 11.28125 51.796875 
Q 16.75 56 26.8125 56 
Q 31.78125 56 36.171875 55.265625 
Q 40.578125 54.546875 44.28125 53.078125 
z
" id="DejaVuSans-115"/>
      <path d="M 48.78125 52.59375 
L 48.78125 44.1875 
Q 44.96875 46.296875 41.140625 47.34375 
Q 37.3125 48.390625 33.40625 48.390625 
Q 24.65625 48.390625 19.8125 42.84375 
Q 14.984375 37.3125 14.984375 27.296875 
Q 14.984375 17.28125 19.8125 11.734375 
Q 24.65625 6.203125 33.40625 6.203125 
Q 37.3125 6.203125 41.140625 7.25 
Q 44.96875 8.296875 48.78125 10.40625 
L 48.78125 2.09375 
Q 45.015625 0.34375 40.984375 -0.53125 
Q 36.96875 -1.421875 32.421875 -1.421875 
Q 20.0625 -1.421875 12.78125 6.34375 
Q 5.515625 14.109375 5.515625 27.296875 
Q 5.515625 40.671875 12.859375 48.328125 
Q 20.21875 56 33.015625 56 
Q 37.15625 56 41.109375 55.140625 
Q 45.0625 54.296875 48.78125 52.59375 
z
" id="DejaVuSans-99"/>
      <path d="M 18.109375 8.203125 
L 18.109375 -20.796875 
L 9.078125 -20.796875 
L 9.078125 54.6875 
L 18.109375 54.6875 
L 18.109375 46.390625 
Q 20.953125 51.265625 25.265625 53.625 
Q 29.59375 56 35.59375 56 
Q 45.5625 56 51.78125 48.09375 
Q 58.015625 40.1875 58.015625 27.296875 
Q 58.015625 14.40625 51.78125 6.484375 
Q 45.5625 -1.421875 35.59375 -1.421875 
Q 29.59375 -1.421875 25.265625 0.953125 
Q 20.953125 3.328125 18.109375 8.203125 
z
M 48.6875 27.296875 
Q 48.6875 37.203125 44.609375 42.84375 
Q 40.53125 48.484375 33.40625 48.484375 
Q 26.265625 48.484375 22.1875 42.84375 
Q 18.109375 37.203125 18.109375 27.296875 
Q 18.109375 17.390625 22.1875 11.75 
Q 26.265625 6.109375 33.40625 6.109375 
Q 40.53125 6.109375 44.609375 11.75 
Q 48.6875 17.390625 48.6875 27.296875 
z
" id="DejaVuSans-112"/>
      <path d="M 32.171875 -5.078125 
Q 28.375 -14.84375 24.75 -17.8125 
Q 21.140625 -20.796875 15.09375 -20.796875 
L 7.90625 -20.796875 
L 7.90625 -13.28125 
L 13.1875 -13.28125 
Q 16.890625 -13.28125 18.9375 -11.515625 
Q 21 -9.765625 23.484375 -3.21875 
L 25.09375 0.875 
L 2.984375 54.6875 
L 12.5 54.6875 
L 29.59375 11.921875 
L 46.6875 54.6875 
L 56.203125 54.6875 
z
" id="DejaVuSans-121"/>
     </defs>
     <g transform="translate(443.275 120.278437)scale(0.1 -0.1)">
      <use xlink:href="#DejaVuSans-100"/>
      <use x="63.476562" xlink:href="#DejaVuSans-105"/>
      <use x="91.259766" xlink:href="#DejaVuSans-115"/>
      <use x="143.359375" xlink:href="#DejaVuSans-99"/>
      <use x="198.339844" xlink:href="#DejaVuSans-114"/>
      <use x="239.421875" xlink:href="#DejaVuSans-101"/>
      <use x="300.945312" xlink:href="#DejaVuSans-112"/>
      <use x="364.421875" xlink:href="#DejaVuSans-97"/>
      <use x="425.701172" xlink:href="#DejaVuSans-110"/>
      <use x="489.080078" xlink:href="#DejaVuSans-99"/>
      <use x="544.060547" xlink:href="#DejaVuSans-121"/>
     </g>
    </g>
    <g id="line2d_22">
     <path d="M 415.275 131.456563 
L 435.275 131.456563 
" style="fill:none;stroke:#1f77b4;stroke-linecap:square;stroke-width:1.5;"/>
    </g>
    <g id="line2d_23"/>
    <g id="text_20">
     <!-- non-adaptive -->
     <defs>
      <path d="M 4.890625 31.390625 
L 31.203125 31.390625 
L 31.203125 23.390625 
L 4.890625 23.390625 
z
" id="DejaVuSans-45"/>
      <path d="M 2.984375 54.6875 
L 12.5 54.6875 
L 29.59375 8.796875 
L 46.6875 54.6875 
L 56.203125 54.6875 
L 35.6875 0 
L 23.484375 0 
z
" id="DejaVuSans-118"/>
     </defs>
     <g transform="translate(443.275 134.956563)scale(0.1 -0.1)">
      <use xlink:href="#DejaVuSans-110"/>
      <use x="63.378906" xlink:href="#DejaVuSans-111"/>
      <use x="124.560547" xlink:href="#DejaVuSans-110"/>
      <use x="187.939453" xlink:href="#DejaVuSans-45"/>
      <use x="224.023438" xlink:href="#DejaVuSans-97"/>
      <use x="285.302734" xlink:href="#DejaVuSans-100"/>
      <use x="348.779297" xlink:href="#DejaVuSans-97"/>
      <use x="410.058594" xlink:href="#DejaVuSans-112"/>
      <use x="473.535156" xlink:href="#DejaVuSans-116"/>
      <use x="512.744141" xlink:href="#DejaVuSans-105"/>
      <use x="540.527344" xlink:href="#DejaVuSans-118"/>
      <use x="599.707031" xlink:href="#DejaVuSans-101"/>
     </g>
    </g>
    <g id="line2d_24">
     <path d="M 415.275 146.134688 
L 435.275 146.134688 
" style="fill:none;stroke:#ff7f0e;stroke-linecap:square;stroke-width:1.5;"/>
    </g>
    <g id="line2d_25"/>
    <g id="text_21">
     <!-- adaptive -->
     <g transform="translate(443.275 149.634688)scale(0.1 -0.1)">
      <use xlink:href="#DejaVuSans-97"/>
      <use x="61.279297" xlink:href="#DejaVuSans-100"/>
      <use x="124.755859" xlink:href="#DejaVuSans-97"/>
      <use x="186.035156" xlink:href="#DejaVuSans-112"/>
      <use x="249.511719" xlink:href="#DejaVuSans-116"/>
      <use x="288.720703" xlink:href="#DejaVuSans-105"/>
      <use x="316.503906" xlink:href="#DejaVuSans-118"/>
      <use x="375.683594" xlink:href="#DejaVuSans-101"/>
     </g>
    </g>
   </g>
  </g>
  <g id="axes_2">
   <g id="patch_8">
    <path d="M 72 768.96 
L 518.4 768.96 
L 518.4 466.56 
L 72 466.56 
z
" style="fill:#ffffff;"/>
   </g>
   <g id="matplotlib.axis_3">
    <g id="xtick_9">
     <g id="line2d_26">
      <g>
       <use style="stroke:#000000;stroke-width:0.8;" x="92.290909" xlink:href="#maa8a10b26d" y="768.96"/>
      </g>
     </g>
     <g id="text_22">
      <!-- 0 -->
      <g transform="translate(89.109659 783.558437)scale(0.1 -0.1)">
       <use xlink:href="#DejaVuSans-48"/>
      </g>
     </g>
    </g>
    <g id="xtick_10">
     <g id="line2d_27">
      <g>
       <use style="stroke:#000000;stroke-width:0.8;" x="151.00303" xlink:href="#maa8a10b26d" y="768.96"/>
      </g>
     </g>
     <g id="text_23">
      <!-- 250 -->
      <g transform="translate(141.45928 783.558437)scale(0.1 -0.1)">
       <use xlink:href="#DejaVuSans-50"/>
       <use x="63.623047" xlink:href="#DejaVuSans-53"/>
       <use x="127.246094" xlink:href="#DejaVuSans-48"/>
      </g>
     </g>
    </g>
    <g id="xtick_11">
     <g id="line2d_28">
      <g>
       <use style="stroke:#000000;stroke-width:0.8;" x="209.715152" xlink:href="#maa8a10b26d" y="768.96"/>
      </g>
     </g>
     <g id="text_24">
      <!-- 500 -->
      <g transform="translate(200.171402 783.558437)scale(0.1 -0.1)">
       <use xlink:href="#DejaVuSans-53"/>
       <use x="63.623047" xlink:href="#DejaVuSans-48"/>
       <use x="127.246094" xlink:href="#DejaVuSans-48"/>
      </g>
     </g>
    </g>
    <g id="xtick_12">
     <g id="line2d_29">
      <g>
       <use style="stroke:#000000;stroke-width:0.8;" x="268.427273" xlink:href="#maa8a10b26d" y="768.96"/>
      </g>
     </g>
     <g id="text_25">
      <!-- 750 -->
      <g transform="translate(258.883523 783.558437)scale(0.1 -0.1)">
       <use xlink:href="#DejaVuSans-55"/>
       <use x="63.623047" xlink:href="#DejaVuSans-53"/>
       <use x="127.246094" xlink:href="#DejaVuSans-48"/>
      </g>
     </g>
    </g>
    <g id="xtick_13">
     <g id="line2d_30">
      <g>
       <use style="stroke:#000000;stroke-width:0.8;" x="327.139394" xlink:href="#maa8a10b26d" y="768.96"/>
      </g>
     </g>
     <g id="text_26">
      <!-- 1000 -->
      <g transform="translate(314.414394 783.558437)scale(0.1 -0.1)">
       <use xlink:href="#DejaVuSans-49"/>
       <use x="63.623047" xlink:href="#DejaVuSans-48"/>
       <use x="127.246094" xlink:href="#DejaVuSans-48"/>
       <use x="190.869141" xlink:href="#DejaVuSans-48"/>
      </g>
     </g>
    </g>
    <g id="xtick_14">
     <g id="line2d_31">
      <g>
       <use style="stroke:#000000;stroke-width:0.8;" x="385.851515" xlink:href="#maa8a10b26d" y="768.96"/>
      </g>
     </g>
     <g id="text_27">
      <!-- 1250 -->
      <g transform="translate(373.126515 783.558437)scale(0.1 -0.1)">
       <use xlink:href="#DejaVuSans-49"/>
       <use x="63.623047" xlink:href="#DejaVuSans-50"/>
       <use x="127.246094" xlink:href="#DejaVuSans-53"/>
       <use x="190.869141" xlink:href="#DejaVuSans-48"/>
      </g>
     </g>
    </g>
    <g id="xtick_15">
     <g id="line2d_32">
      <g>
       <use style="stroke:#000000;stroke-width:0.8;" x="444.563636" xlink:href="#maa8a10b26d" y="768.96"/>
      </g>
     </g>
     <g id="text_28">
      <!-- 1500 -->
      <g transform="translate(431.838636 783.558437)scale(0.1 -0.1)">
       <use xlink:href="#DejaVuSans-49"/>
       <use x="63.623047" xlink:href="#DejaVuSans-53"/>
       <use x="127.246094" xlink:href="#DejaVuSans-48"/>
       <use x="190.869141" xlink:href="#DejaVuSans-48"/>
      </g>
     </g>
    </g>
    <g id="xtick_16">
     <g id="line2d_33">
      <g>
       <use style="stroke:#000000;stroke-width:0.8;" x="503.275758" xlink:href="#maa8a10b26d" y="768.96"/>
      </g>
     </g>
     <g id="text_29">
      <!-- 1750 -->
      <g transform="translate(490.550758 783.558437)scale(0.1 -0.1)">
       <use xlink:href="#DejaVuSans-49"/>
       <use x="63.623047" xlink:href="#DejaVuSans-55"/>
       <use x="127.246094" xlink:href="#DejaVuSans-53"/>
       <use x="190.869141" xlink:href="#DejaVuSans-48"/>
      </g>
     </g>
    </g>
    <g id="text_30">
     <!-- iteration -->
     <g transform="translate(274.077344 797.236562)scale(0.1 -0.1)">
      <use xlink:href="#DejaVuSans-105"/>
      <use x="27.783203" xlink:href="#DejaVuSans-116"/>
      <use x="66.992188" xlink:href="#DejaVuSans-101"/>
      <use x="128.515625" xlink:href="#DejaVuSans-114"/>
      <use x="169.628906" xlink:href="#DejaVuSans-97"/>
      <use x="230.908203" xlink:href="#DejaVuSans-116"/>
      <use x="270.117188" xlink:href="#DejaVuSans-105"/>
      <use x="297.900391" xlink:href="#DejaVuSans-111"/>
      <use x="359.082031" xlink:href="#DejaVuSans-110"/>
     </g>
    </g>
   </g>
   <g id="matplotlib.axis_4">
    <g id="ytick_9">
     <g id="line2d_34">
      <g>
       <use style="stroke:#000000;stroke-width:0.8;" x="72" xlink:href="#m5a4d99edda" y="755.223314"/>
      </g>
     </g>
     <g id="text_31">
      <!-- 0 -->
      <g transform="translate(58.6375 759.022533)scale(0.1 -0.1)">
       <use xlink:href="#DejaVuSans-48"/>
      </g>
     </g>
    </g>
    <g id="ytick_10">
     <g id="line2d_35">
      <g>
       <use style="stroke:#000000;stroke-width:0.8;" x="72" xlink:href="#m5a4d99edda" y="717.040278"/>
      </g>
     </g>
     <g id="text_32">
      <!-- 20 -->
      <g transform="translate(52.275 720.839497)scale(0.1 -0.1)">
       <use xlink:href="#DejaVuSans-50"/>
       <use x="63.623047" xlink:href="#DejaVuSans-48"/>
      </g>
     </g>
    </g>
    <g id="ytick_11">
     <g id="line2d_36">
      <g>
       <use style="stroke:#000000;stroke-width:0.8;" x="72" xlink:href="#m5a4d99edda" y="678.857242"/>
      </g>
     </g>
     <g id="text_33">
      <!-- 40 -->
      <g transform="translate(52.275 682.656461)scale(0.1 -0.1)">
       <use xlink:href="#DejaVuSans-52"/>
       <use x="63.623047" xlink:href="#DejaVuSans-48"/>
      </g>
     </g>
    </g>
    <g id="ytick_12">
     <g id="line2d_37">
      <g>
       <use style="stroke:#000000;stroke-width:0.8;" x="72" xlink:href="#m5a4d99edda" y="640.674206"/>
      </g>
     </g>
     <g id="text_34">
      <!-- 60 -->
      <g transform="translate(52.275 644.473425)scale(0.1 -0.1)">
       <use xlink:href="#DejaVuSans-54"/>
       <use x="63.623047" xlink:href="#DejaVuSans-48"/>
      </g>
     </g>
    </g>
    <g id="ytick_13">
     <g id="line2d_38">
      <g>
       <use style="stroke:#000000;stroke-width:0.8;" x="72" xlink:href="#m5a4d99edda" y="602.49117"/>
      </g>
     </g>
     <g id="text_35">
      <!-- 80 -->
      <g transform="translate(52.275 606.290389)scale(0.1 -0.1)">
       <use xlink:href="#DejaVuSans-56"/>
       <use x="63.623047" xlink:href="#DejaVuSans-48"/>
      </g>
     </g>
    </g>
    <g id="ytick_14">
     <g id="line2d_39">
      <g>
       <use style="stroke:#000000;stroke-width:0.8;" x="72" xlink:href="#m5a4d99edda" y="564.308134"/>
      </g>
     </g>
     <g id="text_36">
      <!-- 100 -->
      <g transform="translate(45.9125 568.107353)scale(0.1 -0.1)">
       <use xlink:href="#DejaVuSans-49"/>
       <use x="63.623047" xlink:href="#DejaVuSans-48"/>
       <use x="127.246094" xlink:href="#DejaVuSans-48"/>
      </g>
     </g>
    </g>
    <g id="ytick_15">
     <g id="line2d_40">
      <g>
       <use style="stroke:#000000;stroke-width:0.8;" x="72" xlink:href="#m5a4d99edda" y="526.125098"/>
      </g>
     </g>
     <g id="text_37">
      <!-- 120 -->
      <g transform="translate(45.9125 529.924317)scale(0.1 -0.1)">
       <use xlink:href="#DejaVuSans-49"/>
       <use x="63.623047" xlink:href="#DejaVuSans-50"/>
       <use x="127.246094" xlink:href="#DejaVuSans-48"/>
      </g>
     </g>
    </g>
    <g id="ytick_16">
     <g id="line2d_41">
      <g>
       <use style="stroke:#000000;stroke-width:0.8;" x="72" xlink:href="#m5a4d99edda" y="487.942062"/>
      </g>
     </g>
     <g id="text_38">
      <!-- 140 -->
      <g transform="translate(45.9125 491.741281)scale(0.1 -0.1)">
       <use xlink:href="#DejaVuSans-49"/>
       <use x="63.623047" xlink:href="#DejaVuSans-52"/>
       <use x="127.246094" xlink:href="#DejaVuSans-48"/>
      </g>
     </g>
    </g>
    <g id="text_39">
     <!-- $f(x_k) - f(x_*)$ -->
     <defs>
      <path d="M 18.3125 75.984375 
L 27.296875 75.984375 
L 18.703125 31.6875 
L 49.515625 54.6875 
L 61.1875 54.6875 
L 26.8125 28.515625 
L 51.90625 0 
L 41.015625 0 
L 17.671875 26.703125 
L 12.5 0 
L 3.515625 0 
z
" id="DejaVuSans-Oblique-107"/>
     </defs>
     <g transform="translate(39.832812 646.56)rotate(-90)scale(0.1 -0.1)">
      <use transform="translate(0 0.015625)" xlink:href="#DejaVuSans-Oblique-102"/>
      <use transform="translate(35.205078 0.015625)" xlink:href="#DejaVuSans-40"/>
      <use transform="translate(74.21875 0.015625)" xlink:href="#DejaVuSans-Oblique-120"/>
      <use transform="translate(133.398438 -16.390625)scale(0.7)" xlink:href="#DejaVuSans-Oblique-107"/>
      <use transform="translate(176.669922 0.015625)" xlink:href="#DejaVuSans-41"/>
      <use transform="translate(235.166016 0.015625)" xlink:href="#DejaVuSans-8722"/>
      <use transform="translate(338.4375 0.015625)" xlink:href="#DejaVuSans-Oblique-102"/>
      <use transform="translate(373.642578 0.015625)" xlink:href="#DejaVuSans-40"/>
      <use transform="translate(412.65625 0.015625)" xlink:href="#DejaVuSans-Oblique-120"/>
      <use transform="translate(485.473633 -16.390625)scale(0.7)" xlink:href="#DejaVuSans-42"/>
      <use transform="translate(536.845703 0.015625)" xlink:href="#DejaVuSans-41"/>
     </g>
    </g>
   </g>
   <g id="line2d_42">
    <path clip-path="url(#p9bd2d99575)" d="M 92.290909 687.28683 
L 92.525758 746.433843 
L 92.760606 750.628604 
L 93.230303 752.732332 
L 93.7 753.359994 
L 94.169697 753.885296 
L 96.048485 754.524989 
L 96.75303 754.609701 
L 96.987879 753.552198 
L 97.222727 754.712587 
L 97.457576 753.827133 
L 97.692424 754.778379 
L 97.927273 754.028162 
L 98.162121 754.823256 
L 98.39697 754.180577 
L 98.631818 754.855713 
L 98.866667 754.299614 
L 99.101515 754.880434 
L 99.336364 754.394893 
L 99.571212 754.900121 
L 99.806061 754.472738 
L 100.040909 754.916391 
L 100.275758 754.537454 
L 100.510606 754.930247 
L 100.745455 754.592056 
L 100.980303 754.942333 
L 101.215152 754.638716 
L 101.45 754.953075 
L 101.684848 754.679033 
L 101.919697 754.962762 
L 102.154545 754.714206 
L 102.389394 754.9716 
L 102.624242 754.745155 
L 102.859091 754.979734 
L 103.093939 754.772592 
L 103.328788 754.987275 
L 103.563636 754.79708 
L 103.798485 754.994304 
L 104.033333 754.819067 
L 104.268182 755.000887 
L 104.50303 754.838917 
L 104.737879 755.007075 
L 104.972727 754.856925 
L 105.207576 755.012909 
L 105.442424 754.873336 
L 105.677273 755.018425 
L 105.912121 754.888351 
L 106.14697 755.023651 
L 106.381818 754.902142 
L 106.616667 755.028613 
L 106.851515 754.914851 
L 107.086364 755.033332 
L 107.321212 754.926601 
L 107.556061 755.037827 
L 107.790909 754.937496 
L 108.025758 755.042114 
L 108.260606 754.947625 
L 108.495455 755.046208 
L 108.730303 754.957066 
L 108.965152 755.050123 
L 109.2 754.965887 
L 109.434848 755.05387 
L 109.669697 754.974147 
L 109.904545 755.057461 
L 110.139394 754.981897 
L 110.374242 755.060904 
L 110.609091 754.989184 
L 110.843939 755.064209 
L 111.078788 754.996046 
L 111.313636 755.067384 
L 111.548485 755.002521 
L 111.783333 755.070437 
L 112.018182 755.008639 
L 112.25303 755.073375 
L 112.487879 755.01443 
L 112.722727 755.076203 
L 112.957576 755.019919 
L 113.427273 755.025129 
L 114.131818 755.084092 
L 114.836364 755.039282 
L 115.540909 755.091189 
L 116.245455 755.051559 
L 116.95 755.097607 
L 117.654545 755.062309 
L 118.359091 755.103439 
L 119.063636 755.071801 
L 119.768182 755.10876 
L 120.472727 755.080241 
L 121.177273 755.113634 
L 121.881818 755.087794 
L 122.821212 755.092405 
L 123.995455 755.122247 
L 125.169697 755.102671 
L 126.343939 755.128463 
L 127.518182 755.11145 
L 128.692424 755.133965 
L 130.336364 755.120439 
L 131.980303 755.140683 
L 133.624242 755.129263 
L 135.268182 755.146467 
L 137.381818 755.137665 
L 139.495455 755.152817 
L 142.078788 755.146273 
L 144.662121 755.15929 
L 147.715152 755.154569 
L 150.768182 755.165561 
L 154.290909 755.162245 
L 158.283333 755.171779 
L 162.745455 755.169915 
L 168.14697 755.178163 
L 174.487879 755.17785 
L 181.768182 755.184762 
L 190.457576 755.185496 
L 200.556061 755.191233 
L 213.00303 755.192754 
L 228.268182 755.197601 
L 247.995455 755.200785 
L 273.828788 755.20393 
L 308.821212 755.206486 
L 358.374242 755.210008 
L 433.995455 755.212923 
L 498.109091 755.214401 
L 498.109091 755.214401 
" style="fill:none;stroke:#0000ff;stroke-linecap:square;stroke-width:1.5;"/>
   </g>
   <g id="line2d_43">
    <path clip-path="url(#p9bd2d99575)" d="M 92.290909 480.305455 
L 92.525758 617.764384 
L 92.760606 663.584028 
L 93.230303 700.239742 
L 93.7 715.949334 
L 94.169697 724.676886 
L 94.639394 730.230782 
L 95.343939 735.586324 
L 96.048485 739.051676 
L 96.75303 741.477421 
L 97.692424 743.768404 
L 98.631818 745.404819 
L 99.571212 746.632131 
L 100.745455 747.793102 
L 102.154545 748.829876 
L 103.798485 749.724957 
L 105.677273 750.483351 
L 108.025758 751.180405 
L 111.078788 751.829267 
L 114.836364 752.38911 
L 119.768182 752.893502 
L 126.578788 753.353125 
L 136.207576 753.760985 
L 150.298485 754.114775 
L 171.904545 754.414732 
L 207.601515 754.664538 
L 271.95 754.864414 
L 403.934848 755.016298 
L 498.109091 755.06431 
L 498.109091 755.06431 
" style="fill:none;stroke:#1f77b4;stroke-linecap:square;stroke-width:1.5;"/>
   </g>
   <g id="line2d_44">
    <path clip-path="url(#p9bd2d99575)" d="M 92.290909 736.131796 
L 108.495455 736.131796 
L 108.730303 754.784161 
L 119.768182 754.960082 
L 144.427273 755.084724 
L 216.525758 755.165301 
L 498.109091 755.2056 
L 498.109091 755.2056 
" style="fill:none;stroke:#ff7f0e;stroke-linecap:square;stroke-width:1.5;"/>
   </g>
   <g id="patch_9">
    <path d="M 72 768.96 
L 72 466.56 
" style="fill:none;stroke:#000000;stroke-linecap:square;stroke-linejoin:miter;stroke-width:0.8;"/>
   </g>
   <g id="patch_10">
    <path d="M 518.4 768.96 
L 518.4 466.56 
" style="fill:none;stroke:#000000;stroke-linecap:square;stroke-linejoin:miter;stroke-width:0.8;"/>
   </g>
   <g id="patch_11">
    <path d="M 72 768.96 
L 518.4 768.96 
" style="fill:none;stroke:#000000;stroke-linecap:square;stroke-linejoin:miter;stroke-width:0.8;"/>
   </g>
   <g id="patch_12">
    <path d="M 72 466.56 
L 518.4 466.56 
" style="fill:none;stroke:#000000;stroke-linecap:square;stroke-linejoin:miter;stroke-width:0.8;"/>
   </g>
   <g id="legend_2">
    <g id="patch_13">
     <path d="M 413.275 518.594375 
L 511.4 518.594375 
Q 513.4 518.594375 513.4 516.594375 
L 513.4 473.56 
Q 513.4 471.56 511.4 471.56 
L 413.275 471.56 
Q 411.275 471.56 411.275 473.56 
L 411.275 516.594375 
Q 411.275 518.594375 413.275 518.594375 
z
" style="fill:#ffffff;opacity:0.8;stroke:#cccccc;stroke-linejoin:miter;"/>
    </g>
    <g id="line2d_45">
     <path d="M 415.275 479.658437 
L 435.275 479.658437 
" style="fill:none;stroke:#0000ff;stroke-linecap:square;stroke-width:1.5;"/>
    </g>
    <g id="line2d_46"/>
    <g id="text_40">
     <!-- discrepancy -->
     <g transform="translate(443.275 483.158437)scale(0.1 -0.1)">
      <use xlink:href="#DejaVuSans-100"/>
      <use x="63.476562" xlink:href="#DejaVuSans-105"/>
      <use x="91.259766" xlink:href="#DejaVuSans-115"/>
      <use x="143.359375" xlink:href="#DejaVuSans-99"/>
      <use x="198.339844" xlink:href="#DejaVuSans-114"/>
      <use x="239.421875" xlink:href="#DejaVuSans-101"/>
      <use x="300.945312" xlink:href="#DejaVuSans-112"/>
      <use x="364.421875" xlink:href="#DejaVuSans-97"/>
      <use x="425.701172" xlink:href="#DejaVuSans-110"/>
      <use x="489.080078" xlink:href="#DejaVuSans-99"/>
      <use x="544.060547" xlink:href="#DejaVuSans-121"/>
     </g>
    </g>
    <g id="line2d_47">
     <path d="M 415.275 494.336563 
L 435.275 494.336563 
" style="fill:none;stroke:#1f77b4;stroke-linecap:square;stroke-width:1.5;"/>
    </g>
    <g id="line2d_48"/>
    <g id="text_41">
     <!-- non-adaptive -->
     <g transform="translate(443.275 497.836563)scale(0.1 -0.1)">
      <use xlink:href="#DejaVuSans-110"/>
      <use x="63.378906" xlink:href="#DejaVuSans-111"/>
      <use x="124.560547" xlink:href="#DejaVuSans-110"/>
      <use x="187.939453" xlink:href="#DejaVuSans-45"/>
      <use x="224.023438" xlink:href="#DejaVuSans-97"/>
      <use x="285.302734" xlink:href="#DejaVuSans-100"/>
      <use x="348.779297" xlink:href="#DejaVuSans-97"/>
      <use x="410.058594" xlink:href="#DejaVuSans-112"/>
      <use x="473.535156" xlink:href="#DejaVuSans-116"/>
      <use x="512.744141" xlink:href="#DejaVuSans-105"/>
      <use x="540.527344" xlink:href="#DejaVuSans-118"/>
      <use x="599.707031" xlink:href="#DejaVuSans-101"/>
     </g>
    </g>
    <g id="line2d_49">
     <path d="M 415.275 509.014688 
L 435.275 509.014688 
" style="fill:none;stroke:#ff7f0e;stroke-linecap:square;stroke-width:1.5;"/>
    </g>
    <g id="line2d_50"/>
    <g id="text_42">
     <!-- adaptive -->
     <g transform="translate(443.275 512.514688)scale(0.1 -0.1)">
      <use xlink:href="#DejaVuSans-97"/>
      <use x="61.279297" xlink:href="#DejaVuSans-100"/>
      <use x="124.755859" xlink:href="#DejaVuSans-97"/>
      <use x="186.035156" xlink:href="#DejaVuSans-112"/>
      <use x="249.511719" xlink:href="#DejaVuSans-116"/>
      <use x="288.720703" xlink:href="#DejaVuSans-105"/>
      <use x="316.503906" xlink:href="#DejaVuSans-118"/>
      <use x="375.683594" xlink:href="#DejaVuSans-101"/>
     </g>
    </g>
   </g>
  </g>
  <g id="text_43">
   <!-- Solving covering_sphere_problem_strong_convex. 1 runs. -->
   <defs>
    <path d="M 53.515625 70.515625 
L 53.515625 60.890625 
Q 47.90625 63.578125 42.921875 64.890625 
Q 37.9375 66.21875 33.296875 66.21875 
Q 25.25 66.21875 20.875 63.09375 
Q 16.5 59.96875 16.5 54.203125 
Q 16.5 49.359375 19.40625 46.890625 
Q 22.3125 44.4375 30.421875 42.921875 
L 36.375 41.703125 
Q 47.40625 39.59375 52.65625 34.296875 
Q 57.90625 29 57.90625 20.125 
Q 57.90625 9.515625 50.796875 4.046875 
Q 43.703125 -1.421875 29.984375 -1.421875 
Q 24.8125 -1.421875 18.96875 -0.25 
Q 13.140625 0.921875 6.890625 3.21875 
L 6.890625 13.375 
Q 12.890625 10.015625 18.65625 8.296875 
Q 24.421875 6.59375 29.984375 6.59375 
Q 38.421875 6.59375 43.015625 9.90625 
Q 47.609375 13.234375 47.609375 19.390625 
Q 47.609375 24.75 44.3125 27.78125 
Q 41.015625 30.8125 33.5 32.328125 
L 27.484375 33.5 
Q 16.453125 35.6875 11.515625 40.375 
Q 6.59375 45.0625 6.59375 53.421875 
Q 6.59375 63.09375 13.40625 68.65625 
Q 20.21875 74.21875 32.171875 74.21875 
Q 37.3125 74.21875 42.625 73.28125 
Q 47.953125 72.359375 53.515625 70.515625 
z
" id="DejaVuSans-83"/>
    <path d="M 9.421875 75.984375 
L 18.40625 75.984375 
L 18.40625 0 
L 9.421875 0 
z
" id="DejaVuSans-108"/>
    <path d="M 45.40625 27.984375 
Q 45.40625 37.75 41.375 43.109375 
Q 37.359375 48.484375 30.078125 48.484375 
Q 22.859375 48.484375 18.828125 43.109375 
Q 14.796875 37.75 14.796875 27.984375 
Q 14.796875 18.265625 18.828125 12.890625 
Q 22.859375 7.515625 30.078125 7.515625 
Q 37.359375 7.515625 41.375 12.890625 
Q 45.40625 18.265625 45.40625 27.984375 
z
M 54.390625 6.78125 
Q 54.390625 -7.171875 48.1875 -13.984375 
Q 42 -20.796875 29.203125 -20.796875 
Q 24.46875 -20.796875 20.265625 -20.09375 
Q 16.0625 -19.390625 12.109375 -17.921875 
L 12.109375 -9.1875 
Q 16.0625 -11.328125 19.921875 -12.34375 
Q 23.78125 -13.375 27.78125 -13.375 
Q 36.625 -13.375 41.015625 -8.765625 
Q 45.40625 -4.15625 45.40625 5.171875 
L 45.40625 9.625 
Q 42.625 4.78125 38.28125 2.390625 
Q 33.9375 0 27.875 0 
Q 17.828125 0 11.671875 7.65625 
Q 5.515625 15.328125 5.515625 27.984375 
Q 5.515625 40.671875 11.671875 48.328125 
Q 17.828125 56 27.875 56 
Q 33.9375 56 38.28125 53.609375 
Q 42.625 51.21875 45.40625 46.390625 
L 45.40625 54.6875 
L 54.390625 54.6875 
z
" id="DejaVuSans-103"/>
    <path id="DejaVuSans-32"/>
    <path d="M 50.984375 -16.609375 
L 50.984375 -23.578125 
L -0.984375 -23.578125 
L -0.984375 -16.609375 
z
" id="DejaVuSans-95"/>
    <path d="M 54.890625 33.015625 
L 54.890625 0 
L 45.90625 0 
L 45.90625 32.71875 
Q 45.90625 40.484375 42.875 44.328125 
Q 39.84375 48.1875 33.796875 48.1875 
Q 26.515625 48.1875 22.3125 43.546875 
Q 18.109375 38.921875 18.109375 30.90625 
L 18.109375 0 
L 9.078125 0 
L 9.078125 75.984375 
L 18.109375 75.984375 
L 18.109375 46.1875 
Q 21.34375 51.125 25.703125 53.5625 
Q 30.078125 56 35.796875 56 
Q 45.21875 56 50.046875 50.171875 
Q 54.890625 44.34375 54.890625 33.015625 
z
" id="DejaVuSans-104"/>
    <path d="M 48.6875 27.296875 
Q 48.6875 37.203125 44.609375 42.84375 
Q 40.53125 48.484375 33.40625 48.484375 
Q 26.265625 48.484375 22.1875 42.84375 
Q 18.109375 37.203125 18.109375 27.296875 
Q 18.109375 17.390625 22.1875 11.75 
Q 26.265625 6.109375 33.40625 6.109375 
Q 40.53125 6.109375 44.609375 11.75 
Q 48.6875 17.390625 48.6875 27.296875 
z
M 18.109375 46.390625 
Q 20.953125 51.265625 25.265625 53.625 
Q 29.59375 56 35.59375 56 
Q 45.5625 56 51.78125 48.09375 
Q 58.015625 40.1875 58.015625 27.296875 
Q 58.015625 14.40625 51.78125 6.484375 
Q 45.5625 -1.421875 35.59375 -1.421875 
Q 29.59375 -1.421875 25.265625 0.953125 
Q 20.953125 3.328125 18.109375 8.203125 
L 18.109375 0 
L 9.078125 0 
L 9.078125 75.984375 
L 18.109375 75.984375 
z
" id="DejaVuSans-98"/>
    <path d="M 52 44.1875 
Q 55.375 50.25 60.0625 53.125 
Q 64.75 56 71.09375 56 
Q 79.640625 56 84.28125 50.015625 
Q 88.921875 44.046875 88.921875 33.015625 
L 88.921875 0 
L 79.890625 0 
L 79.890625 32.71875 
Q 79.890625 40.578125 77.09375 44.375 
Q 74.3125 48.1875 68.609375 48.1875 
Q 61.625 48.1875 57.5625 43.546875 
Q 53.515625 38.921875 53.515625 30.90625 
L 53.515625 0 
L 44.484375 0 
L 44.484375 32.71875 
Q 44.484375 40.625 41.703125 44.40625 
Q 38.921875 48.1875 33.109375 48.1875 
Q 26.21875 48.1875 22.15625 43.53125 
Q 18.109375 38.875 18.109375 30.90625 
L 18.109375 0 
L 9.078125 0 
L 9.078125 54.6875 
L 18.109375 54.6875 
L 18.109375 46.1875 
Q 21.1875 51.21875 25.484375 53.609375 
Q 29.78125 56 35.6875 56 
Q 41.65625 56 45.828125 52.96875 
Q 50 49.953125 52 44.1875 
z
" id="DejaVuSans-109"/>
    <path d="M 54.890625 54.6875 
L 35.109375 28.078125 
L 55.90625 0 
L 45.3125 0 
L 29.390625 21.484375 
L 13.484375 0 
L 2.875 0 
L 24.125 28.609375 
L 4.6875 54.6875 
L 15.28125 54.6875 
L 29.78125 35.203125 
L 44.28125 54.6875 
z
" id="DejaVuSans-120"/>
    <path d="M 10.6875 12.40625 
L 21 12.40625 
L 21 0 
L 10.6875 0 
z
" id="DejaVuSans-46"/>
    <path d="M 8.5 21.578125 
L 8.5 54.6875 
L 17.484375 54.6875 
L 17.484375 21.921875 
Q 17.484375 14.15625 20.5 10.265625 
Q 23.53125 6.390625 29.59375 6.390625 
Q 36.859375 6.390625 41.078125 11.03125 
Q 45.3125 15.671875 45.3125 23.6875 
L 45.3125 54.6875 
L 54.296875 54.6875 
L 54.296875 0 
L 45.3125 0 
L 45.3125 8.40625 
Q 42.046875 3.421875 37.71875 1 
Q 33.40625 -1.421875 27.6875 -1.421875 
Q 18.265625 -1.421875 13.375 4.4375 
Q 8.5 10.296875 8.5 21.578125 
z
M 31.109375 56 
z
" id="DejaVuSans-117"/>
   </defs>
   <g transform="translate(115.18125 26.398125)scale(0.12 -0.12)">
    <use xlink:href="#DejaVuSans-83"/>
    <use x="63.476562" xlink:href="#DejaVuSans-111"/>
    <use x="124.658203" xlink:href="#DejaVuSans-108"/>
    <use x="152.441406" xlink:href="#DejaVuSans-118"/>
    <use x="211.621094" xlink:href="#DejaVuSans-105"/>
    <use x="239.404297" xlink:href="#DejaVuSans-110"/>
    <use x="302.783203" xlink:href="#DejaVuSans-103"/>
    <use x="366.259766" xlink:href="#DejaVuSans-32"/>
    <use x="398.046875" xlink:href="#DejaVuSans-99"/>
    <use x="453.027344" xlink:href="#DejaVuSans-111"/>
    <use x="514.208984" xlink:href="#DejaVuSans-118"/>
    <use x="573.388672" xlink:href="#DejaVuSans-101"/>
    <use x="634.912109" xlink:href="#DejaVuSans-114"/>
    <use x="676.025391" xlink:href="#DejaVuSans-105"/>
    <use x="703.808594" xlink:href="#DejaVuSans-110"/>
    <use x="767.1875" xlink:href="#DejaVuSans-103"/>
    <use x="830.664062" xlink:href="#DejaVuSans-95"/>
    <use x="880.664062" xlink:href="#DejaVuSans-115"/>
    <use x="932.763672" xlink:href="#DejaVuSans-112"/>
    <use x="996.240234" xlink:href="#DejaVuSans-104"/>
    <use x="1059.619141" xlink:href="#DejaVuSans-101"/>
    <use x="1121.142578" xlink:href="#DejaVuSans-114"/>
    <use x="1162.224609" xlink:href="#DejaVuSans-101"/>
    <use x="1223.748047" xlink:href="#DejaVuSans-95"/>
    <use x="1273.748047" xlink:href="#DejaVuSans-112"/>
    <use x="1337.224609" xlink:href="#DejaVuSans-114"/>
    <use x="1378.306641" xlink:href="#DejaVuSans-111"/>
    <use x="1439.488281" xlink:href="#DejaVuSans-98"/>
    <use x="1502.964844" xlink:href="#DejaVuSans-108"/>
    <use x="1530.748047" xlink:href="#DejaVuSans-101"/>
    <use x="1592.271484" xlink:href="#DejaVuSans-109"/>
    <use x="1689.683594" xlink:href="#DejaVuSans-95"/>
    <use x="1739.683594" xlink:href="#DejaVuSans-115"/>
    <use x="1791.783203" xlink:href="#DejaVuSans-116"/>
    <use x="1830.992188" xlink:href="#DejaVuSans-114"/>
    <use x="1872.074219" xlink:href="#DejaVuSans-111"/>
    <use x="1933.255859" xlink:href="#DejaVuSans-110"/>
    <use x="1996.634766" xlink:href="#DejaVuSans-103"/>
    <use x="2060.111328" xlink:href="#DejaVuSans-95"/>
    <use x="2110.111328" xlink:href="#DejaVuSans-99"/>
    <use x="2165.091797" xlink:href="#DejaVuSans-111"/>
    <use x="2226.273438" xlink:href="#DejaVuSans-110"/>
    <use x="2289.652344" xlink:href="#DejaVuSans-118"/>
    <use x="2348.832031" xlink:href="#DejaVuSans-101"/>
    <use x="2410.339844" xlink:href="#DejaVuSans-120"/>
    <use x="2469.519531" xlink:href="#DejaVuSans-46"/>
    <use x="2501.306641" xlink:href="#DejaVuSans-32"/>
    <use x="2533.09375" xlink:href="#DejaVuSans-49"/>
    <use x="2596.716797" xlink:href="#DejaVuSans-32"/>
    <use x="2628.503906" xlink:href="#DejaVuSans-114"/>
    <use x="2669.617188" xlink:href="#DejaVuSans-117"/>
    <use x="2732.996094" xlink:href="#DejaVuSans-110"/>
    <use x="2796.375" xlink:href="#DejaVuSans-115"/>
    <use x="2848.474609" xlink:href="#DejaVuSans-46"/>
   </g>
  </g>
 </g>
 <defs>
  <clipPath id="p059ac5c755">
   <rect height="302.4" width="446.4" x="72" y="103.68"/>
  </clipPath>
  <clipPath id="p9bd2d99575">
   <rect height="302.4" width="446.4" x="72" y="466.56"/>
  </clipPath>
 </defs>
</svg>
